<svg width="120" height="120" viewBox="0 0 120 120" fill="none" xmlns="http://www.w3.org/2000/svg">
  <rect width="120" height="120" rx="12" fill="#8b5cf6"/>
  <path d="M25 40C25 35 30 30 35 30H85C90 30 95 35 95 40V80C95 85 90 90 85 90H35C30 90 25 85 25 80V40Z" fill="white" opacity="0.9"/>
  <path d="M30 35H90" stroke="#8b5cf6" stroke-width="1" opacity="0.5"/>
  <path d="M30 45H90" stroke="#8b5cf6" stroke-width="1" opacity="0.5"/>
  <path d="M30 55H90" stroke="#8b5cf6" stroke-width="1" opacity="0.5"/>
  <path d="M30 65H90" stroke="#8b5cf6" stroke-width="1" opacity="0.5"/>
  <path d="M30 75H90" stroke="#8b5cf6" stroke-width="1" opacity="0.5"/>
  <path d="M30 85H90" stroke="#8b5cf6" stroke-width="1" opacity="0.5"/>
  <circle cx="40" cy="40" r="2" fill="#8b5cf6"/>
  <circle cx="60" cy="40" r="2" fill="#8b5cf6"/>
  <circle cx="80" cy="40" r="2" fill="#8b5cf6"/>
</svg>
